<svg width="50" height="50" viewBox="0 0 50 50" fill="none" xmlns="http://www.w3.org/2000/svg">
<path d="M23.25 33.375L37.5 19.125L34.875 16.5625L23.4375 28L17.125 21.6875L14.375 24.4375L23.25 33.375ZM26 50C20.1667 48.5417 15.375 45.1562 11.625 39.8438C7.875 34.5312 6 28.7083 6 22.375V7.5L26 0L46 7.5V22.375C46 28.7083 44.125 34.5312 40.375 39.8438C36.625 45.1562 31.8333 48.5417 26 50ZM26 46.125C30.7917 44.5417 34.6979 41.5521 37.7188 37.1562C40.7396 32.7604 42.25 27.8333 42.25 22.375V10.125L26 4L9.75 10.125V22.375C9.75 27.8333 11.2604 32.7604 14.2812 37.1562C17.3021 41.5521 21.2083 44.5417 26 46.125Z" fill="#2667FF"/>
</svg>
