<svg width="51" height="50" viewBox="0 0 51 50" fill="none" xmlns="http://www.w3.org/2000/svg">
<path d="M50.8333 7.95L22.3083 36.5L11.7083 25.9L15.2333 22.375L22.3083 29.45L47.3083 4.45L50.8333 7.95ZM45.3083 20.55C45.6333 21.975 45.8333 23.475 45.8333 25C45.8333 36.05 36.8833 45 25.8333 45C14.7833 45 5.83331 36.05 5.83331 25C5.83331 13.95 14.7833 5 25.8333 5C29.7833 5 33.4333 6.15 36.5333 8.125L40.1333 4.525C36.0833 1.675 31.1583 0 25.8333 0C12.0333 0 0.833313 11.2 0.833313 25C0.833313 38.8 12.0333 50 25.8333 50C39.6333 50 50.8333 38.8 50.8333 25C50.8333 22.025 50.2833 19.175 49.3333 16.525L45.3083 20.55Z" fill="#2667FF"/>
</svg>
